Coordinates
version=1
nRows=10
nColumns=40
inDegrees=yes

Units are S.I. units (second, meters, Newtons, ...)
Angles are in degrees.

endheader
time	pelvis_tilt	pelvis_list	pelvis_rotation	pelvis_tx	pelvis_ty	pelvis_tz	hip_flexion_r	hip_adduction_r	hip_rotation_r	knee_angle_r	knee_angle_r_beta	ankle_angle_r	subtalar_angle_r	mtp_angle_r	hip_flexion_l	hip_adduction_l	hip_rotation_l	knee_angle_l	knee_angle_l_beta	ankle_angle_l	subtalar_angle_l	mtp_angle_l	lumbar_extension	lumbar_bending	lumbar_rotation	arm_flex_r	arm_add_r	arm_rot_r	elbow_flex_r	pro_sup_r	wrist_flex_r	wrist_dev_r	arm_flex_l	arm_add_l	arm_rot_l	elbow_flex_l	pro_sup_l	wrist_flex_l	wrist_dev_l
      5.89750000	     -3.80715835	     -5.68929940	     -1.05277937	      0.91827470	      0.92540358	      0.50332880	     19.35750114	      4.12352449	    -15.40385690	     17.05332281	     17.05332281	      4.42667642	     -0.14375323	     -3.51585252	      7.70521977	    -10.60823741	     -6.06469711	     44.41912402	     44.41912402	     10.51596724	    -17.11811963	     -6.35420123	     -8.42746718	      8.01440158	      2.04838861	      5.59771210	    -13.09225152	    -13.30866077	     40.23297860	     42.93074165	      0.00000000	      0.00000000	     11.97655217	     -8.82297207	     -8.40087891	     48.08288998	     44.34084146	      0.00000000	      0.00000000
      5.90914286	     -3.55671594	     -5.72177148	     -0.67570357	      0.91859909	      0.92656603	      0.50484494	     18.40891442	      4.14955959	    -16.01893149	     16.79387482	     16.79387482	      4.88068662	      0.57079386	     -3.96357688	      9.71282261	    -10.97379750	     -5.23477490	     48.63717254	     48.63717254	     10.28251550	    -17.43034039	     -1.81229909	     -8.53856476	      8.06598546	      2.50047658	      5.82654803	    -13.86987147	    -12.54984115	     43.06347673	     42.97439799	      0.00000000	      0.00000000	     12.90849620	     -8.30829126	     -7.86308748	     42.06894697	     44.43447204	      0.00000000	      0.00000000
      5.92078571	     -3.31660393	     -5.91566754	     -0.34339930	      0.91880106	      0.92750707	      0.50650261	     17.44624374	      4.44690727	    -16.33408496	     16.45134529	     16.45134529	      5.31620495	      0.84539372	     -4.09064634	     11.61318551	    -11.63948737	     -4.71316635	     52.31877511	     52.31877511	      8.71280430	    -18.07558517	     -1.18967868	     -8.71679673	      8.19484806	      2.46339205	      7.15155124	    -14.31791238	    -12.67804390	     44.03208628	     42.97139443	      0.00000000	      0.00000000	     11.91189154	     -8.17656061	     -7.72554618	     40.93613531	     44.42032540	      0.00000000	      0.00000000
      5.93242857	     -3.24158803	     -5.93913543	      0.06219650	      0.91868802	      0.92823843	      0.50756501	     16.64607175	      4.44598331	    -17.11241380	     16.05895501	     16.05895501	      5.63945982	      1.78875200	     -4.70826739	     13.98844132	    -11.81352297	     -3.75317124	     56.23863115	     56.23863115	      9.68286425	    -18.02267945	      5.84052998	     -8.65896534	      8.29428399	      2.61347660	      7.37112119	    -14.99882662	    -12.09575483	     47.37216641	     43.00738252	      0.00000000	      0.00000000	     12.45682326	     -7.87955762	     -7.03935810	     35.40092261	     44.49222323	      0.00000000	      0.00000000
      5.94407143	     -3.09188885	     -6.10369205	      0.40262283	      0.91848017	      0.92889513	      0.50886587	     15.77476266	      4.69896767	    -17.54436697	     15.64421492	     15.64421492	      5.96307535	      2.22153314	     -4.87606132	     16.03924459	    -12.31360680	     -3.18112968	     59.37627084	     59.37627084	      9.12315708	    -18.32196518	      7.69855506	     -8.77228132	      8.47158277	      2.37129980	      8.62679150	    -15.29516026	    -12.24767236	     49.24900210	     43.04200205	      0.00000000	      0.00000000	     11.52378677	     -7.90666637	     -6.78741753	     33.44961698	     44.51808096	      0.00000000	      0.00000000
      5.95571429	     -3.02133140	     -6.30106146	      0.66024123	      0.91806905	      0.92937718	      0.51013219	     15.07938459	      4.99011648	    -17.84948902	     15.36195137	     15.36195137	      6.26839768	      2.52799255	     -4.97513660	     18.08688193	    -12.86971185	     -2.74772629	     62.04289556	     62.04289556	      8.39920347	    -18.60022183	      8.16861196	     -8.81894866	      8.64343587	      2.67801161	      9.84854258	    -15.88954943	    -12.39547420	     50.14918746	     43.04275289	      0.00000000	      0.00000000	     10.52190824	     -7.71580622	     -6.68082960	     32.52741544	     44.50521175	      0.00000000	      0.00000000
      5.96735714	     -2.98769053	     -6.34064578	      0.90895904	      0.91751799	      0.92983830	      0.51118493	     14.40620807	      5.05920668	    -18.42176436	     15.06317157	     15.06317157	      6.60599752	      3.37024802	     -5.26795025	     20.24410294	    -13.05799677	     -2.17381929	     64.52387951	     64.52387951	      9.45396302	    -18.58071209	     12.70017373	     -8.86631788	      8.68725477	      3.15158713	     10.13381677	    -16.61538035	    -12.06631810	     53.37480258	     43.09422594	      0.00000000	      0.00000000	     10.36883249	     -7.53352220	     -6.04319801	     29.19511540	     44.56013895	      0.00000000	      0.00000000
      5.97900000	     -2.81082074	     -6.25463685	      1.00193826	      0.91700724	      0.93059257	      0.51239213	     13.65113849	      5.08394202	    -18.37444096	     14.88683404	     14.88683404	      6.96599538	      3.52275533	     -5.32909960	     21.85913300	    -13.27245097	     -2.06675190	     66.10368490	     66.10368490	      9.11792248	    -18.77923713	     12.62319464	     -9.07884825	      8.47834029	      3.67504790	     11.32466257	    -17.19107438	    -12.26807974	     53.98385339	     43.09589336	      0.00000000	      0.00000000	      9.32721324	     -7.41370736	     -6.02095888	     28.69908684	     44.54673168	      0.00000000	      0.00000000
      5.99064286	     -2.93866035	     -6.52716160	      1.26860742	      0.91620975	      0.93080280	      0.51341061	     13.10677001	      5.46517424	    -18.82224378	     14.39678720	     14.39678720	      7.14507997	      4.05481139	     -5.27256061	     23.98056556	    -13.74496861	     -1.58106656	     67.44947031	     67.44947031	      9.24081366	    -18.79668370	     13.05589535	     -8.88651811	      8.81091364	      3.14141488	     12.86383658	    -17.15227636	    -12.44556076	     56.01183616	     43.07687854	      0.00000000	      0.00000000	      7.84441177	     -7.56088714	     -5.87205797	     27.53137613	     44.53369585	      0.00000000	      0.00000000
      6.00228571	     -2.90769182	     -6.44098087	      1.29712696	      0.91542404	      0.93143779	      0.51447262	     12.53349979	      5.48181367	    -18.76592192	     14.22287442	     14.22287442	      7.46774065	      4.26104905	     -5.31919320	     25.55759716	    -13.85812158	     -1.52216358	     68.03621975	     68.03621975	      9.31457297	    -18.89917111	     13.05087758	     -9.06667015	      8.63985738	      3.73841357	     14.11272099	    -17.79608851	    -12.63663904	     56.78043819	     43.07295901	      0.00000000	      0.00000000	      6.73020265	     -7.44827389	     -5.85135086	     27.04541774	     44.51930372	      0.00000000	      0.00000000
